# xmcd
#
# Track frame offsets: 
#        150
#        14307
#        38566
#        58238
#        73967
#        93361
#        109824
#        130369
#        151657
#        164362
#        186170
#        210228
#        227857
#
# Disc length: 3099 seconds
#
# Revision: 0
# Processed by: cddbd v1.5.2PL0 Copyright (c) Steve Scherf et al.
# Submitted via: ExactAudioCopyFreeDBPlugin 1.0
#
DISCID=ac0c190d
DTITLE=Crunchy Western Boys - Rumorville
DYEAR=1900
DGENRE=Old Time
TTITLE0=Worried Head
TTITLE1=Last Best Hope
TTITLE2=Dancing in the Living Room
TTITLE3=Bail for Beauregard
TTITLE4=Weatherman
TTITLE5=She's Got Your Eyes
TTITLE6=Fool Around
TTITLE7=Rumorville
TTITLE8=Good Life
TTITLE9=Turn
TTITLE10=Jimmie Rae's Bar n' Grill
TTITLE11=Lighthouse
TTITLE12=extra track
EXTD=
EXTT0=
EXTT1=
EXTT2=
EXTT3=
EXTT4=
EXTT5=
EXTT6=
EXTT7=
EXTT8=
EXTT9=
EXTT10=
EXTT11=
EXTT12=
PLAYORDER=
